<?xml version="1.0" encoding="utf-8"?>
<!-- Generator: Adobe Illustrator 23.0.3, SVG Export Plug-In . SVG Version: 6.00 Build 0)  -->
<svg version="1.1" id="Layer_1" xmlns="http://www.w3.org/2000/svg" xmlns:xlink="http://www.w3.org/1999/xlink" x="0px" y="0px"
	 viewBox="0 0 400 400" style="enable-background:new 0 0 400 400;" xml:space="preserve">
<style type="text/css">
	.st0{fill:#3498DB;}
	.st1{fill:#2F495E;}
	.st2{fill:#108775;}
</style>
<g transform="translate(0 50)">
	<path class="st0" d="M227.9,83.5l-13.7,24.1l-46.8-82.4L23.7,278.2H121c0,13.3,10.6,24.1,23.7,24.1h-121c-8.5,0-16.3-4.6-20.5-12.1
		c-4.2-7.5-4.2-16.6,0-24.1L146.9,13.1C151.1,5.6,159,1,167.4,1c8.5,0,16.3,4.6,20.5,12.1L227.9,83.5z"/>
	<path class="st1" d="M331.7,266.1l-90.1-158.6l-13.7-24.1l-13.7,24.1l-90,158.6c-4.2,7.5-4.2,16.6,0,24.1
		c4.2,7.5,12.1,12.1,20.5,12.1h166.4c8.5,0,16.3-4.6,20.5-12S335.9,273.6,331.7,266.1L331.7,266.1z M144.7,278.2l83.2-146.5
		l83.2,146.5H144.7L144.7,278.2z"/>
	<path class="st2" d="M396,290.2c-4.2,7.5-12.1,12.1-20.5,12.1h-64.4c13.1,0,23.7-10.8,23.7-24.1h40.7L260.1,75l-18.5,32.6
		l-13.7-24.1l11.7-20.5c4.2-7.5,12.1-12.1,20.5-12.1c8.5,0,16.3,4.6,20.5,12.1L396,266.1C400.3,273.6,400.3,282.8,396,290.2z"/>
</g>
</svg>
